<?xml version="1.0" encoding="utf-8"?>
<!-- Generator: Adobe Illustrator 22.0.1, SVG Export Plug-In . SVG Version: 6.00 Build 0)  -->
<svg version="1.1" id="Layer_1" xmlns="http://www.w3.org/2000/svg" xmlns:xlink="http://www.w3.org/1999/xlink" x="0px" y="0px"
	 viewBox="0 0 1600 1200" enable-background="new 0 0 1600 1200" xml:space="preserve">
<g>
	<g>
		<path fill="#02536D" d="M739.1,630.6h-52.2c0-23.2,0-46.5,0-69.7h52.2v12.7H700v16h37.7V602H700v15.7h39.1V630.6z"/>
		<path fill="#02536D" d="M781.7,581.6h14.5v0.4l-16.1,23.8l17.1,24.6v0.3h-14.5l-10.7-16.4l-10.7,16.4h-14.5v-0.3l17.1-24.6
			l-16.1-23.8v-0.4h14.5l9.7,16.6L781.7,581.6z"/>
		<path fill="#02536D" d="M845.6,624.4c-5.7,5.6-11.7,7.8-18.9,7.8c-14.2,0-26.1-8.6-26.1-26c0-17.4,11.9-26,26.1-26
			c7,0,12.3,2,17.7,7.3l-7.7,8.1c-2.9-2.6-6.5-3.9-9.9-3.9c-8.2,0-14.1,6-14.1,14.5c0,9.4,6.4,14.3,13.9,14.3
			c3.9,0,7.8-1.1,10.8-4.1L845.6,624.4z"/>
		<path fill="#02536D" d="M863.3,610.4c0.8,6.1,6.1,10.5,14.6,10.5c4.5,0,10.4-1.7,13.1-4.6l7.8,7.7c-5.2,5.4-13.6,8-21.1,8
			c-16.9,0-27-10.5-27-26.2c0-14.9,10.2-25.7,26.1-25.7c16.4,0,26.7,10.2,24.8,30.4H863.3z M890,600.4c-0.8-6.4-5.8-9.6-12.7-9.6
			c-6.6,0-11.9,3.2-13.7,9.6H890z"/>
		<path fill="#02536D" d="M918.7,560.9v64.6H958v5.1h-44.6v-69.7H918.7z"/>
		<path fill="#02536D" d="M973.7,565.4c0,5.2-7.9,5.2-7.9,0C965.8,560.2,973.7,560.2,973.7,565.4z M967.2,581.3v49.4h4.9v-49.4
			H967.2z"/>
		<path fill="#02536D" d="M990.8,581.5v8.8c3.8-6.8,10.7-9.6,17.5-9.7c13.1,0,22.2,8.1,22.2,21.7v28.4h-4.9v-28.3
			c0-11.2-6.9-17.1-17.5-17c-10.2,0.1-17.2,7.8-17.2,17.9v27.4h-4.9v-49.2H990.8z"/>
		<path fill="#02536D" d="M1052.5,566.6v14.8h16.7v4.1h-16.7v30c0,6.7,1.4,11.4,9.1,11.4c2.4,0,5.1-0.8,7.6-2l1.7,4
			c-3.1,1.5-6.2,2.5-9.3,2.5c-10.5,0-13.8-6.2-13.8-15.8v-30h-10.5v-4.1h10.5v-14.3L1052.5,566.6z"/>
	</g>
	<g>
		<polygon fill="#F06550" points="537.3,559.4 529.2,560.6 529.2,671.3 557.8,677.9 557.7,669.6 537.3,664.9 		"/>
		<polygon fill="#5EC7D6" points="620,513.5 619.9,505.3 529.2,520.4 529.2,554.3 537.3,553.3 537.3,527.2 		"/>
		<polygon fill="#FAB116" points="564.1,671.1 564.1,679.3 660.3,701.4 660.3,657.1 652.2,657.1 652.2,691.3 		"/>
		<g>
			<path fill="#02536D" d="M546.8,657.1l95.8,19.3V522.8l-95.8,15V657.1z M630,610.3l-41.9-1.1v-21.1l41.9-2.1V610.3z M630,560.4
				l-41.9,5.6v-21.6l41.9-6.6V560.4z M559.7,548.8l18-2.8v80l1.4,0.1v2.7l50.9,6.9v24.6l-70.3-14.2V548.8z"/>
			<polygon fill="#02536D" points="626.2,504.3 626.1,512.4 652.2,508.1 652.2,651 660.3,650.8 660.3,498.6 			"/>
		</g>
	</g>
</g>
</svg>
