<?xml version="1.0" encoding="utf-8"?>
<!-- Generator: Adobe Illustrator 22.0.1, SVG Export Plug-In . SVG Version: 6.00 Build 0)  -->
<svg version="1.1" id="Layer_1" xmlns="http://www.w3.org/2000/svg" xmlns:xlink="http://www.w3.org/1999/xlink" x="0px" y="0px"
	 viewBox="0 0 1000 1000" enable-background="new 0 0 1000 1000" xml:space="preserve">
<g>
	<polygon fill="#F06550" points="240,316.3 203.4,321.8 203.4,822.9 333,852.6 332.3,815 240,793.8 	"/>
	<polygon fill="#5EC7D6" points="614.5,108.3 613.8,71.4 203.4,139.6 203.4,293.1 240,288.4 240,170.6 	"/>
	<polygon fill="#FAB116" points="361.3,821.6 361.2,859.1 796.6,959 796.6,758.5 760,758.4 760,913.1 	"/>
	<g>
		<path fill="#02536D" d="M283.1,758.3l433.7,87.3V150.6l-433.7,67.9V758.3z M659.6,546.7L470,542v-95.6l189.6-9.3V546.7z
			 M659.6,320.7L470,345.9v-97.8l189.6-29.7V320.7z M341.3,268.3l81.6-12.8v362.3l6.4,0.6v12.3l230.3,31.3v111.3l-318.3-64.1V268.3z
			"/>
		<polygon fill="#02536D" points="642.3,66.6 642.2,103.7 760,84.1 760,730.8 796.6,730.1 796.6,41 		"/>
	</g>
</g>
</svg>
